<svg data-v-423bf9ae="" xmlns="http://www.w3.org/2000/svg" viewBox="0 0 378 90" class="iconLeft"><!----><!----><!----><g data-v-423bf9ae="" id="e5d31762-3328-43dc-944b-e981bdf62e3e" fill="#ffffff" transform="matrix(4.501125307082416,0,0,4.501125307082416,104.32858391090784,-2.95948882609202)"><path d="M1.26 14.35L5.84 14.35C7.28 14.35 8.37 13.13 8.37 11.54C8.37 9.90 7.13 9.30 6.38 9.25L6.38 9.17C7.10 9.09 8.04 8.55 8.04 7.10C8.04 5.57 7.03 4.58 5.42 4.58L1.26 4.58ZM2.62 9.91L5.43 9.91C6.36 9.91 6.92 10.39 6.92 11.30L6.92 11.79C6.92 12.70 6.36 13.17 5.43 13.17L2.62 13.17ZM2.62 5.75L5.21 5.75C6.06 5.75 6.58 6.22 6.58 7.03L6.58 7.49C6.58 8.30 6.06 8.76 5.21 8.76L2.62 8.76ZM12.68 14.35L12.68 13.24L11.65 13.24L11.65 3.99L10.35 3.99L10.35 13.02C10.35 13.82 10.81 14.35 11.70 14.35ZM17.02 14.52C19.00 14.52 20.33 13.03 20.33 10.72C20.33 8.41 19.00 6.93 17.02 6.93C15.05 6.93 13.72 8.41 13.72 10.72C13.72 13.03 15.05 14.52 17.02 14.52ZM17.02 13.40C15.89 13.40 15.11 12.68 15.11 11.27L15.11 10.18C15.11 8.76 15.89 8.05 17.02 8.05C18.16 8.05 18.94 8.76 18.94 10.18L18.94 11.27C18.94 12.68 18.16 13.40 17.02 13.40ZM28.34 15.09C28.34 13.87 27.57 13.13 25.77 13.13L24.12 13.13C23.46 13.13 23.06 13.01 23.06 12.59C23.06 12.18 23.46 11.94 23.88 11.82C24.12 11.87 24.42 11.90 24.70 11.90C26.45 11.90 27.51 10.89 27.51 9.42C27.51 8.62 27.19 7.95 26.60 7.52L26.60 7.13L28.03 7.13L28.03 6.03L26.92 6.03C26.31 6.03 26.04 6.43 26.04 7.03L26.04 7.18C25.65 7.03 25.20 6.93 24.70 6.93C22.96 6.93 21.90 7.95 21.90 9.42C21.90 10.42 22.39 11.21 23.24 11.62L23.24 11.68C22.53 11.84 21.98 12.21 21.98 12.94C21.98 13.45 22.23 13.82 22.69 14L22.69 14.15C21.95 14.34 21.50 14.77 21.50 15.55C21.50 16.67 22.43 17.32 24.74 17.32C27.19 17.32 28.34 16.59 28.34 15.09ZM27.12 15.22C27.12 15.96 26.45 16.32 25.21 16.32L24.23 16.32C23.10 16.32 22.67 15.85 22.67 15.25C22.67 14.84 22.85 14.53 23.25 14.32L25.69 14.32C26.75 14.32 27.12 14.67 27.12 15.22ZM24.71 10.92C23.79 10.92 23.21 10.49 23.21 9.60L23.21 9.24C23.21 8.36 23.79 7.92 24.71 7.92C25.63 7.92 26.21 8.36 26.21 9.24L26.21 9.60C26.21 10.49 25.63 10.92 24.71 10.92ZM29.68 14.35L34.26 14.35C35.70 14.35 36.79 13.13 36.79 11.54C36.79 9.90 35.55 9.30 34.80 9.25L34.80 9.17C35.52 9.09 36.46 8.55 36.46 7.10C36.46 5.57 35.45 4.58 33.84 4.58L29.68 4.58ZM31.04 9.91L33.85 9.91C34.78 9.91 35.34 10.39 35.34 11.30L35.34 11.79C35.34 12.70 34.78 13.17 33.85 13.17L31.04 13.17ZM31.04 5.75L33.63 5.75C34.48 5.75 35 6.22 35 7.03L35 7.49C35 8.30 34.48 8.76 33.63 8.76L31.04 8.76ZM41.55 14.52C43.53 14.52 44.86 13.03 44.86 10.72C44.86 8.41 43.53 6.93 41.55 6.93C39.58 6.93 38.25 8.41 38.25 10.72C38.25 13.03 39.58 14.52 41.55 14.52ZM41.55 13.40C40.42 13.40 39.63 12.68 39.63 11.27L39.63 10.18C39.63 8.76 40.42 8.05 41.55 8.05C42.69 8.05 43.47 8.76 43.47 10.18L43.47 11.27C43.47 12.68 42.69 13.40 41.55 13.40ZM49.42 14.52C51.39 14.52 52.72 13.03 52.72 10.72C52.72 8.41 51.39 6.93 49.42 6.93C47.45 6.93 46.12 8.41 46.12 10.72C46.12 13.03 47.45 14.52 49.42 14.52ZM49.42 13.40C48.29 13.40 47.50 12.68 47.50 11.27L47.50 10.18C47.50 8.76 48.29 8.05 49.42 8.05C50.55 8.05 51.34 8.76 51.34 10.18L51.34 11.27C51.34 12.68 50.55 13.40 49.42 13.40ZM54.50 14.35L55.80 14.35L55.80 11.84L56.84 10.74L59.11 14.35L60.68 14.35L57.76 9.90L60.34 7.10L58.80 7.10L56.91 9.17L55.87 10.44L55.80 10.44L55.80 3.99L54.50 3.99Z"></path></g><!----><g data-v-423bf9ae="" id="17c6f6d2-1616-4656-942e-a56679bb414b" transform="matrix(2.8125,0,0,2.8125,0,0)" stroke="none" fill="#14D9D9"><path d="M15.965 16.258l.707-.707 10.39 10.39-.707.707z"></path><path d="M4.935 26.357L26.018 5.274l.707.707L5.642 27.065z"></path><path d="M31 1v4.194h-4.194V1H31m1-1h-6.194v6.194H32V0zM31 26.806V31h-4.194v-4.194H31m1-1h-6.194V32H32v-6.194zM5.194 26.806V31H1v-4.194h4.194m1-1H0V32h6.194v-6.194z"></path></g><!----></svg>